<svg id="Layer_1" fill="white" data-name="Layer 1" xmlns="http://www.w3.org/2000/svg" viewBox="0 0 500 282.358"><title>title</title><path d="M457.4845,21.6792c.253,5.711,1.0651,10.69,17.7588,10.69,14.0179,0,19.3828-3.9171,19.3828-10.0075a7.1286,7.1286,0,0,0-2.43-5.7111c-4.0869-3.6642-18.3145-5.0287-20.318-6.9457A1.9457,1.9457,0,0,1,471.3228,8.3c0-1.5775,1.4511-2.5992,4.1768-2.5992a6.5147,6.5147,0,0,1,3.794.852,4.03,4.03,0,0,1,1.5775,3.408h12.69c-.17-6.3467-4.13-9.961-17.21-9.961-12.3106,0-18.4842,3.0185-18.4842,9.748a7.0625,7.0625,0,0,0,2.17,5.3682c4.1335,3.6209,18.83,5.0687,20.5777,7.0322a2.0794,2.0794,0,0,1,.5524,1.4045c0,2.4728-2.8955,3.1118-5.5812,3.1118a5.0538,5.0538,0,0,1-3.7075-1.2348,5.27,5.27,0,0,1-1.1948-3.7507ZM429.6816,7.0222h4.7326c3.1517,0,5.1152.9386,5.1152,3.6676,0,2.8988-2.1332,3.7508-4.9022,3.7508h-4.9456ZM416.7387,31.56h12.9429V20.3979h3.9205c4.4331,0,4.9888.5125,5.5846,4.3032l1.065,6.8592H453.198l-1.6608-10.31c-.5125-3.1085-2.9819-4.17-5.9639-4.2567v-.426c3.8339-.6789,6.6429-3.2349,6.6429-7.2852,0-6.8159-5.1952-8.4733-13.582-8.4733H416.7387Zm-36.07,0h29.6433v-6.47h-17.123V19.4194h15.8883V12.95H393.1891V7.2785h16.9533V.8087H380.6688Zm-27.337,0h12.9463V8.3h10.0941V.8087H343.2376V8.3h10.0942Zm-50.3375-9.8811c.2529,5.711,1.0617,10.69,17.7587,10.69,14.0146,0,19.3829-3.9171,19.3829-10.0075a7.129,7.129,0,0,0-2.43-5.7111c-4.087-3.6642-18.3179-5.0287-20.3214-6.9457A1.9566,1.9566,0,0,1,316.8325,8.3c0-1.5775,1.4477-2.5992,4.1768-2.5992a6.5143,6.5143,0,0,1,3.794.852,4.03,4.03,0,0,1,1.5775,3.408h12.69c-.1731-6.3467-4.13-9.961-17.21-9.961C309.5506,0,303.377,3.0185,303.377,9.748a7.0625,7.0625,0,0,0,2.17,5.3682c4.13,3.6209,18.83,5.0687,20.5777,7.0322a2.0794,2.0794,0,0,1,.5524,1.4045c0,2.4728-2.8987,3.1118-5.5812,3.1118a5.0485,5.0485,0,0,1-3.7075-1.2348,5.27,5.27,0,0,1-1.1948-3.7507Zm-42.2968-2.8955c0,4.8591.9352,6.9025,2.9354,8.9892,3.1084,3.2349,8.4733,4.5961,15.4224,4.5961,6.9457,0,12.3106-1.3612,15.4191-4.5961,2-2.0867,2.9387-4.13,2.9387-8.9892V.8087H285.149v16.87c0,5.8774-2.0468,7.7079-5.9673,7.7079s-5.9672-1.8305-5.9672-7.7079V.8087h-12.517Zm-27.61-.09h3.834c4.4763,0,6.0971,1.1515,6.0971,3.7108,0,2.556-1.6208,3.7075-6.0971,3.7075h-3.834ZM220.1413,31.56h22.661c6.6462,0,8.6464-.6823,10.6466-2.3829a7.1773,7.1773,0,0,0,2.2564-5.5379c0-5.2851-4.17-7.3718-8.5165-7.628v-.0833c4.0469-.9784,7.1986-2.9387,7.1986-7.1154,0-5.1952-3.9205-8.0041-13.2458-8.0041h-21ZM233.0876,6.51h3.7907c4.05,0,4.9888,1.1948,4.9888,3.3681,0,2.0467-1.1948,3.368-4.9455,3.368h-3.834ZM157.0073,31.56h18.7006c9.5017,0,12.9063-1.1915,16.5273-4.0869,2.6825-2.13,4.1734-6.5164,4.1734-11.0326,0-4.6028-1.5342-8.31-3.7474-10.5667-4.2167-4.2567-10.0941-5.0654-19.17-5.0654H157.0073ZM169.9536,7.7877h3.581c5.8808,0,9.4186,2.6425,9.4186,8.3968,0,5.751-3.5378,8.3935-9.4186,8.3935h-3.581ZM136.8124,31.56h12.9463V.8087H136.8124Zm-33.2577,0H119.4L132.9884.8087H119.7825l-7.8809,19.4194L104.237.8087H89.9661ZM76.0314,16.1845c0,6.3068-3.1085,9.2022-7.3718,9.2022-4.26,0-7.3717-2.8954-7.3717-9.2022S64.4,6.979,68.66,6.979c4.2633,0,7.3718,2.8988,7.3718,9.2055m13.2025,0C89.2339,6.979,83.696,0,68.66,0,60.7354,0,56.9447,1.3179,54.006,3.4046c-3.5344,2.5094-5.9207,6.8126-5.9207,12.78,0,9.2022,5.538,16.1845,20.5743,16.1845,7.9276,0,13.2492-2.13,16.5706-5.3216,2.556-2.4262,4.0037-6.1337,4.0037-10.8629M43.7921,12.2207c-.0433-4.5162-.6823-6.39-2.5992-8.22C38.51,1.4443,33.1422,0,25.431,0,8.2247,0,4.9466,8.896,4.9466,16.1845c0,9.8412,5.0686,16.1845,20.4844,16.1845,6.6029,0,12.6534-1.4477,16.1047-4.7691,2.3829-2.2964,2.6824-4.9822,2.7689-7.7512H31.0987c-.13,3.9638-2.0467,5.7943-5.9639,5.7943-5.0288,0-6.7328-4.3465-6.7328-9.4585,0-5.1153,1.704-9.4618,6.7328-9.4618,3.4912,0,5.1119,1.704,5.4514,5.498Z"/><path d="M457.7731,185.25a121.4253,121.4253,0,0,1-16.2112,1.7806c-.18-8.1938-.18-18.7073,0-25.653a62.5258,62.5258,0,0,0,11.2223-11.5818c.7156,13.8981,2.4961,26.1888,4.9889,35.4542m15.1461-33.1378a99.5523,99.5523,0,0,1-2.8521,10.154c-.892,2.4961-1.96,4.9888-3.0286,7.3052a56.5893,56.5893,0,0,1-8.9093-20.6675h1.96c.892,2.6724,4.6327,3.3847,9.2655,3.3847,1.248,0,2.3163-.1764,3.5643-.1764m-12.83-8.9094H428.5557c0-6.0571.1764-14.4306.1764-17.6389h31.3573v17.6389ZM499.6439,189.17a2.2609,2.2609,0,0,0-1.96-2.3163c-9.2654-1.96-17.8186-4.9889-24.5879-10.5135a143.1271,143.1271,0,0,0,15.3225-6.7693,7.35,7.35,0,0,1,3.3847-1.0684,4.9833,4.9833,0,0,1,1.6041.1764c.5358,0,.892.18,1.4244.18,2.3164,0,3.3847-1.0683,3.3847-2.4927a4.5845,4.5845,0,0,0-2.1366-3.5644c-4.2766-2.8522-13.0062-7.4849-19.4194-10.87,6.0571-.5325,10.8662-1.78,10.8662-6.0571v-.5325a31.9012,31.9012,0,0,1-.1764-4.2766c0-3.2083.1764-6.7727.1764-8.3735,0-2.3163,1.0716-3.2083,4.2766-5.1685a3.2379,3.2379,0,0,0,1.7839-2.8489,5.4379,5.4379,0,0,0-2.14-3.9205c-4.9888-3.2083-13.0063-7.3051-16.9267-9.2654-1.6009-.7122-3.5611-.7122-4.453,0-3.0286,2.14-6.593,4.9888-9.2654,6.7694a5.8065,5.8065,0,0,1-4.453,1.6041H430.16s-15.6787-5.701-27.26-8.906a5.1615,5.1615,0,0,0-1.6041-.3561c-.7122,0-1.248.3561-1.248,1.7805a6.5294,6.5294,0,0,0,.3594,2.3164c.8886,3.3847,1.2447,8.906,1.2447,14.9664,0,6.0572-.3561,12.65-.8886,18.8837v.5358c0,3.7408,4.0969,4.8091,9.6182,4.8091,1.248,0,2.4961-.1764,3.7441-.1764,2.3164-.18,4.453-.3561,6.4133-.7122-6.2369,8.3735-16.0348,17.28-25.8361,24.2285.18-2.8488.18-5.8807.18-8.9093,0-24.9407-3.5644-54.8736-14.61-72.1564A90.8888,90.8888,0,0,0,393.2779,81.38c1.4244-2.1366,2.3164-2.8488,4.6327-2.8488h1.4244c3.0286,0,4.4564-1.2481,4.4564-2.8522,0-1.2481-1.0717-2.8522-3.5644-3.7408-9.2655-3.3847-18.887-6.5929-27.26-8.73a4.3815,4.3815,0,0,0-1.4244-.18c-.7122,0-.8919.5358-1.4244,2.3164a68.3228,68.3228,0,0,1-2.4961,8.197c-.7122,1.7806-1.4244,3.7408-2.3164,5.7011C360.14,74.787,354.439,71.4023,347.49,67.8412a4.06,4.06,0,0,0-1.6042-.5358c-1.0683,0-1.6008.7122-1.6008,1.78a2.551,2.551,0,0,0,.7122,1.7839,74.14,74.14,0,0,1,14.2509,20.6641,111.5609,111.5609,0,0,1-16.747,23.1636,2.5583,2.5583,0,0,0-.7122,1.78,1.7832,1.7832,0,0,0,1.7806,1.7806,2.2905,2.2905,0,0,0,1.0716-.1764,125.347,125.347,0,0,0,20.1316-10.1541q.5343,2.4013,1.0684,4.8091c-7.1255,24.588-16.3909,45.0758-26.5449,61.4667a4.1149,4.1149,0,0,0-.5358,1.6041c0,1.0683.7122,1.6042,1.7805,1.6042a2.4055,2.4055,0,0,0,1.4277-.3562,94.2169,94.2169,0,0,0,27.793-23.34v4.2733a215.2433,215.2433,0,0,1-1.0684,21.9155c-1.0716,7.841-3.0285,9.7979-6.949,9.7979h-.5358c-1.6042,0-3.0286-.1764-4.6328-.1764-4.4529-.3561-8.73-.7122-12.8264-1.4244h-.5359c-1.2447,0-1.96.7122-1.96,1.6008a3.1,3.1,0,0,0,1.7838,2.4961c12.65,5.8774,12.8265,9.6215,14.4307,25.12.3561,2.496,1.0683,3.3846,3.2083,3.3846a6.7493,6.7493,0,0,0,1.78-.1763c17.995-2.8522,29.7532-7.1288,31.7134-32.2493a44.1868,44.1868,0,0,0,.3561-4.9888,126.3433,126.3433,0,0,0,21.9156-7.1255V188.102c-5.1686.1764-10.87.1764-14.0779.1764h-1.2447c-1.0716,0-1.6041.18-1.6041,1.248a4.5669,4.5669,0,0,0,.3561,1.96c1.96,7.1254,5.8807,20.4877,8.3735,27.6132.7122,1.7839,1.7805,2.6725,3.0285,2.6725,1.4244,0,2.8522-1.4245,3.0286-3.9172.18-2.3164.7122-3.7441,2.3163-4.2766,14.7868-4.2766,28.1491-10.69,42.7594-22.8041,5.8808,14.9631,13.8982,23.696,26.1922,29.2173a4.1335,4.1335,0,0,0,1.4244.3561,2.5364,2.5364,0,0,0,2.4927-2.4927c1.4278-14.2542,3.0286-22.8075,8.9093-26.3685a2.5991,2.5991,0,0,0,1.2481-2.3164M500,106.68a4.0175,4.0175,0,0,0-1.0683-2.4961c-4.2766-3.7407-13.0062-10.51-17.2829-13.3623-1.7838-1.2447-3.2083-1.2447-4.4563,0a136.4768,136.4768,0,0,0-10.33,10.1574,3.8367,3.8367,0,0,1-3.5644,1.6041h-6.0571c-.18-5.1685-.18-10.3337-.18-14.79h34.3859c2.14,0,2.6725-.8886,2.6725-2.1367a4.4885,4.4885,0,0,0-1.0684-2.6724,147.6525,147.6525,0,0,0-14.61-12.47c-1.78-1.4278-3.0285-1.4278-4.2765,0-2.8489,2.8488-7.3019,7.4815-8.906,9.2621a4.0546,4.0546,0,0,1-3.7408,1.7838h-4.4563a43.37,43.37,0,0,0,.18-4.4563c.1764-2.4927,1.2447-3.7408,4.2766-4.453,2.313-.5358,3.3847-1.96,3.3847-3.2083,0-1.2447-1.2481-2.6724-3.7441-3.0285-9.4419-1.4245-22.2683-2.4928-30.6418-3.205h-1.4278c-1.4244,0-1.78.3561-1.78,1.2447,0,.7156.3561,2.14.7122,4.2766a120.7128,120.7128,0,0,1,.8919,12.83h-5.701c-6.593,0-15.8584-.7155-21.2033-2.3163a6.0681,6.0681,0,0,0-1.6008-.18c-.5358,0-.8919.18-.8919.7122a2.6647,2.6647,0,0,0,.1764,1.0683,49.6348,49.6348,0,0,0,2.496,6.7727,3.24,3.24,0,0,0,3.7408,1.6041c3.5644-1.0716,10.5135-1.4277,17.4592-1.4277h5.5246c0,4.9888-.18,9.9776-.3561,14.79h-14.61c-6.593,0-15.8551-.7155-21.2-2.3163a6.0992,6.0992,0,0,0-1.6041-.18c-.7123,0-1.0683.18-1.0683.892a1.95,1.95,0,0,0,.1763.8886,49.2135,49.2135,0,0,0,2.4961,6.7727,3.234,3.234,0,0,0,3.7408,1.6008c3.5611-1.0684,10.69-1.4245,17.6389-1.4245h83.0227c2.14,0,2.8522-1.0683,2.8522-2.1366M325.398,156.2088a19.9214,19.9214,0,0,0-1.7805-8.0173c-6.2369-14.9665-26.9043-24.588-53.0931-26.1888h-.3561c-1.96,0-3.2083.8886-3.2083,1.96,0,.7122.7122,1.6008,1.96,2.313,21.9122,10.69,21.9122,27.44,28.3288,38.3064a13.6277,13.6277,0,0,0,12.1143,7.4849,15.9136,15.9136,0,0,0,16.0347-15.8584m.18-72.5125a4.1507,4.1507,0,0,0-1.2481-2.6725,212.7216,212.7216,0,0,0-21.2033-17.1031,4.2974,4.2974,0,0,0-2.3163-.7122,2.8182,2.8182,0,0,0-2.1367.8886c-3.9205,3.7441-9.4418,9.9776-13.1859,13.7184a5.15,5.15,0,0,1-4.0969,1.7839H194.6238c-6.59,0-16.0348-.7122-21.38-2.3164a6.0681,6.0681,0,0,0-1.6008-.18c-.5358,0-.892.18-.892.7122a2.6879,2.6879,0,0,0,.1764,1.0717,50.2563,50.2563,0,0,0,2.3164,6.7693,3.2441,3.2441,0,0,0,3.7441,1.6042c3.5611-1.0717,10.69-1.2481,17.6356-1.2481h36.8819c-9.7979,34.742-40.0869,68.4157-61.8227,86.5871-1.6041,1.4244-2.3163,2.4961-2.3163,3.3847,0,.8919.7122,1.4278,1.96,1.4278a9.3634,9.3634,0,0,0,1.96-.3562c22.6244-6.2368,43.648-19.7788,60.2185-35.99,0,4.2766.1764,8.906.1764,13.7184,0,18.5275-.5324,40.0869-1.4244,58.6145v.5358c0,4.6327,4.9888,6.593,13.0062,6.593h2.8522c9.9743-.5359,16.0348-3.2083,16.0348-8.0174v-.18c-.5358-16.2111-.892-35.81-.892-53.0931,0-13.3623.1764-25.4766.3562-33.6737,0-2.3163,1.7805-3.0285,4.4529-3.7407a3.7007,3.7007,0,0,0,3.0286-3.3847c0-1.4244-1.0683-2.6725-3.3846-3.2083-3.3847-.7122-8.73-1.4244-13.0063-1.9569a116.8391,116.8391,0,0,0,13.3623-27.26h56.6576c2.1366,0,2.8522-1.0683,2.8522-2.3163m-165.23,122.0413a4.032,4.032,0,0,0-1.0716-2.8489c-6.4133-6.4132-14.4307-14.7867-21.2-20.4877a3.1836,3.1836,0,0,0-2.3164-.892,2.874,2.874,0,0,0-2.3163,1.0684c-5.8808,6.2368-11.2257,11.9378-15.3226,16.9267a5.5617,5.5617,0,0,1-3.7408,1.6041H23.6927c-6.59,0-15.855-.7155-21.2-2.3163a6.0866,6.0866,0,0,0-1.6041-.18c-.5325,0-.8886.18-.8886.7122a2.6652,2.6652,0,0,0,.1764,1.0684,67.5576,67.5576,0,0,0,2.4961,7.841,3.238,3.238,0,0,0,3.7407,1.6041c3.5611-1.0716,10.51-1.4277,17.4592-1.4277H157.6753a2.4313,2.4313,0,0,0,2.6724-2.6725M140.0363,142.49a4.0572,4.0572,0,0,0-1.0683-2.8521c-5.701-5.7011-14.0778-13.7185-20.4911-18.8837a4.2488,4.2488,0,0,0-2.4927-.8919,2.9511,2.9511,0,0,0-2.14.8919c-5.5213,5.8808-9.6182,10.69-13.3623,15.3226a4.1292,4.1292,0,0,1-3.7408,1.6041H46.3205c-6.593,0-15.8551-.7155-21.2-2.3163a6.09,6.09,0,0,0-1.6042-.18c-.5358,0-.8919.18-.8919.7122a2.62,2.62,0,0,0,.18,1.0683,71.0084,71.0084,0,0,0,2.4928,8.0174,3.2357,3.2357,0,0,0,3.7407,1.6041c3.5644-1.0683,10.5135-1.4244,17.4626-1.4244h90.8637a2.4311,2.4311,0,0,0,2.6724-2.6725m9.0857-53.4492a4.7319,4.7319,0,0,0-1.0683-3.0286c-6.2368-6.2368-13.8981-13.7184-19.7755-18.3511a4.259,4.259,0,0,0-2.4961-.8919,2.9377,2.9377,0,0,0-2.1366.8919c-4.4564,4.6327-9.8013,10.51-13.5421,14.9665a4.5988,4.5988,0,0,1-3.7407,1.6041H33.1379c-6.593,0-15.8584-.7156-21.2033-2.3164a6.0782,6.0782,0,0,0-1.6042-.18c-.7122,0-1.0683.18-1.0683.892a1.9177,1.9177,0,0,0,.18.8885,69.983,69.983,0,0,0,2.6725,8.0174,3.2357,3.2357,0,0,0,3.7408,1.6042c3.5643-1.0683,10.51-1.4244,17.4591-1.4244H146.45a2.51,2.51,0,0,0,2.6724-2.6725"/><path d="M497.7122,257.151l-4.656.8154-.15.5259a1.8394,1.8394,0,0,1,1.1715.2329.6013.6013,0,0,1,.29.5259,6.42,6.42,0,0,1-.3028,1.3944l-3.7275,12.7367a6.612,6.612,0,0,0-.3328,1.644,1.5355,1.5355,0,0,0,.5391,1.1782,2.0616,2.0616,0,0,0,1.4511.4925,3.179,3.179,0,0,0,1.85-.609,10.4,10.4,0,0,0,2.5826-2.9953l-.5392-.25a7.7127,7.7127,0,0,1-1.4776,1.8238.7112.7112,0,0,1-.4693.193.3516.3516,0,0,1-.2562-.1264.425.425,0,0,1-.1165-.3029,9.1746,9.1746,0,0,1,.3993-1.7273l4.5729-15.5522Zm-10.164,6.3534-4.6826.7588-.18.5524c.193-.0066.3594-.0133.4992-.0133a1.0456,1.0456,0,0,1,.7189.2363.71.71,0,0,1,.26.5392,5.59,5.59,0,0,1-.2763,1.4344l-1.92,6.6029a4.7442,4.7442,0,0,0-.2329,1.298,1.68,1.68,0,0,0,.5325,1.278,1.9847,1.9847,0,0,0,1.4277.5058q2.3512,0,4.4364-3.6342l-.4726-.2763a8.2925,8.2925,0,0,1-1.491,1.8505.71.71,0,0,1-.4693.21.3555.3555,0,0,1-.2629-.1331.3974.3974,0,0,1-.1231-.2829,5.4186,5.4186,0,0,1,.2329-1.1049l2.8322-9.8212Zm-1.4576-5.761a1.977,1.977,0,0,0-.5858,1.4378,2.0235,2.0235,0,1,0,4.047,0,2.0116,2.0116,0,0,0-2.03-2.03,1.9493,1.9493,0,0,0-1.431.5924m-8.78,14.1611a14.9889,14.9889,0,0,0,1.83-2.2731,11.1242,11.1242,0,0,0,1.1583-2.17,5.355,5.355,0,0,0,.3394-1.87,2.3951,2.3951,0,0,0-.5791-1.6042,1.4726,1.4726,0,0,0-1.1748-.4825,1.5951,1.5951,0,0,0-1.1881.4825,1.6648,1.6648,0,0,0-.4693,1.2048,1.56,1.56,0,0,0,.1165.6057,5.74,5.74,0,0,0,.5957.9319,2.2148,2.2148,0,0,1,.4759,1.2913,4.0116,4.0116,0,0,1-.7654,2.0035,18.8669,18.8669,0,0,1-2.799,3.1351,27.9111,27.9111,0,0,0-1.3412-9.6548l-4.5994,1.2314v.4959a3.5818,3.5818,0,0,1,.5691-.0566,1.02,1.02,0,0,1,.6756.223,2.3014,2.3014,0,0,1,.6223,1.0616,23.0327,23.0327,0,0,1,.5459,3.9738q.24,2.9752.24,4.55c0,.386-.0133.9585-.04,1.7139h.4959q3.44-2.9154,5.2917-4.7924m-15.3658-13.2891a8.6613,8.6613,0,0,1,3.1151.406,3.4219,3.4219,0,0,1,1.5409,1.2913,4.0694,4.0694,0,0,1,.426,1.95h.4992l1.2014-4.6826H453.7947l-.15.5092a3.7519,3.7519,0,0,1,1.6973.3794.9542.9542,0,0,1,.3728.8087,6.1353,6.1353,0,0,1-.2895,1.5875l-3.5212,12.061a4.9117,4.9117,0,0,1-1.1748,2.34,3.2234,3.2234,0,0,1-2.06.5325l-.1631.5125h16.0215l1.9469-5.1386h-.5658a11.0128,11.0128,0,0,1-3.7441,3.0319,10.16,10.16,0,0,1-4.4463,1.0018,3.4742,3.4742,0,0,1-1.6707-.2763.5875.5875,0,0,1-.3062-.5125,5.0785,5.0785,0,0,1,.2363-1.2281l1.7972-6.2867H458.85a8.5017,8.5017,0,0,1,1.95.14,2.485,2.485,0,0,1,1.1649.689,1.7594,1.7594,0,0,1,.4492,1.2447,7.3852,7.3852,0,0,1-.1231,1.1881h.4826l2.1-7.2952h-.5125a5.1124,5.1124,0,0,1-1.9536,2.35,7.6631,7.6631,0,0,1-3.6676.6623h-.6357l2.0868-7.2652Zm-24.132,6.0139a1.644,1.644,0,0,1,.3461,1.1149,14.8244,14.8244,0,0,1-.5658,3.8306,19.9079,19.9079,0,0,1-1.4511,3.8273,7.5054,7.5054,0,0,1-1.4909,2.23,1.4784,1.4784,0,0,1-.9552.3328,1.2021,1.2021,0,0,1-.9086-.416,1.47,1.47,0,0,1-.3894-1.0484,16.4078,16.4078,0,0,1,1.2182-5.7676,11.5632,11.5632,0,0,1,2.18-4.0669,1.7683,1.7683,0,0,1,1.218-.4293,1.0437,1.0437,0,0,1,.7988.3927m-3.4113-.3428a9.7688,9.7688,0,0,0-2.7124,2.03,10.64,10.64,0,0,0-1.95,2.9287,8.5763,8.5763,0,0,0-.7655,3.5977,3.8988,3.8988,0,0,0,1.0284,2.7357,3.757,3.757,0,0,0,2.9088,1.1182,7.67,7.67,0,0,0,4.1168-1.2913,9.68,9.68,0,0,0,3.2949-3.5311,9.1085,9.1085,0,0,0,1.248-4.4729,4.0909,4.0909,0,0,0-.4892-1.99A3.4129,3.4129,0,0,0,439.63,264.01a4.3478,4.3478,0,0,0-2.05-.5058,6.8911,6.8911,0,0,0-3.1783.7821M411.6776,257.58l-.1531.5092a3.77,3.77,0,0,1,1.491.25,4.382,4.382,0,0,1,1.2281,1.0483L410.28,272.9928a4.7683,4.7683,0,0,1-.8952,1.8171,3,3,0,0,1-1.1349.852,3.2466,3.2466,0,0,1-1.1182.1365l-.1232.5125h6.1037l.1265-.5125a2.2884,2.2884,0,0,1-1.5708-.4493,1.541,1.541,0,0,1-.4893-1.1948,4.4392,4.4392,0,0,1,.18-1.1615l3.6343-12.4438,7.5115,15.9682h.5259l4.5728-15.5122a4.4437,4.4437,0,0,1,1.2513-2.28,3.3445,3.3445,0,0,1,1.87-.6356l.1365-.5092h-5.9373l-.1531.5092a2.3864,2.3864,0,0,1,1.4976.4825,1.4492,1.4492,0,0,1,.436,1.1083,5.0745,5.0745,0,0,1-.2064,1.3246l-2.6391,9.0624L418.001,257.58Zm-15.9682,5.924-4.1734.9119-.1231.3993a2.8151,2.8151,0,0,1,.9451.1.7456.7456,0,0,1,.3595.3028,1.08,1.08,0,0,1,.1331.5791,7.34,7.34,0,0,1-.25,1.3546l-2.28,9.1589h3.3414a38.4967,38.4967,0,0,1,1.1216-3.9738q.3993-1.0433,1.1183-2.546a13.2478,13.2478,0,0,1,1.2081-2.15,3.1483,3.1483,0,0,1,.7954-.8087.6136.6136,0,0,1,.2895-.08.3744.3744,0,0,1,.233.0865,2.8437,2.8437,0,0,1,.3894.6024.89.89,0,0,0,.8287.5125,1.1543,1.1543,0,0,0,.9252-.5824,3.7762,3.7762,0,0,0,.649-2.25,1.7855,1.7855,0,0,0-.3595-1.1948,1.17,1.17,0,0,0-.9385-.4226,2.2452,2.2452,0,0,0-1.6042.7754q-1.2979,1.308-3.8672,6.989l2.0867-7.7644Zm-12.7,7.4316a11.0271,11.0271,0,0,1-1.6441,2.4994,1.748,1.748,0,0,1-1.2547.7189.6714.6714,0,0,1-.5325-.3228,1.8109,1.8109,0,0,1-.2429-1.0584,12.3175,12.3175,0,0,1,1.0716-4.5229,10.3252,10.3252,0,0,1,1.9969-3.4745,1.34,1.34,0,0,1,.8819-.4127.7933.7933,0,0,1,.679.3428,2.9225,2.9225,0,0,1,.3428,1.6175,10.5528,10.5528,0,0,1-1.298,4.6127m2.4462-7.0456-.4959,1.7007a3.0639,3.0639,0,0,0-.6923-1.6374,1.726,1.726,0,0,0-1.2447-.4493,4.8871,4.8871,0,0,0-2.982,1.2713,11.1149,11.1149,0,0,0-3.1217,4.0536,10.7215,10.7215,0,0,0-1.1882,4.47,4.8532,4.8532,0,0,0,.5658,2.3529,1.9391,1.9391,0,0,0,1.8371,1.045,2.945,2.945,0,0,0,1.8238-.6622,13.6454,13.6454,0,0,0,3.0819-3.8972l-.3329,1.1182a8.5089,8.5089,0,0,0-.4426,2.0035,1.377,1.377,0,0,0,.416,1.0284,1.6374,1.6374,0,0,0,1.2015.4093,3.9706,3.9706,0,0,0,2.3962-.822,7.9359,7.9359,0,0,0,2.0934-2.6192l-.4859-.2463a10.8108,10.8108,0,0,1-.9918,1.268,1.46,1.46,0,0,1-.8021.4427.338.338,0,0,1-.2429-.1232.4159.4159,0,0,1-.1165-.29,1.818,1.818,0,0,1,.04-.3062l.2763-1.1183,2.6824-9.1855Zm-16.3011,1.4511a2.2285,2.2285,0,0,1,1.491-.9252.7177.7177,0,0,1,.5458.2229.8325.8325,0,0,1,.2164.6058,4.7722,4.7722,0,0,1-.4726,1.9536,6.2072,6.2072,0,0,1-1.1116,1.7272,4.3044,4.3044,0,0,1-1.3113.9951,7.1248,7.1248,0,0,1-1.887.4893,13.231,13.231,0,0,1,2.5293-5.0687m.0566,5.3749a9.593,9.593,0,0,0,2.7191-1.2081,6.5973,6.5973,0,0,0,2.0168-2.0934,3.7439,3.7439,0,0,0,.5824-1.9636,1.83,1.83,0,0,0-.5957-1.3945,2.5022,2.5022,0,0,0-1.7539-.5524,8.7841,8.7841,0,0,0-4.5662,1.3678,10.1275,10.1275,0,0,0-3.591,3.6343,8.929,8.929,0,0,0-1.3179,4.5295,3.9824,3.9824,0,0,0,.8819,2.556,3.8985,3.8985,0,0,0,3.1917,1.1049,6.8835,6.8835,0,0,0,3.3281-.8153,10.9713,10.9713,0,0,0,3.0951-2.7357l-.4127-.3728a10.0659,10.0659,0,0,1-2.26,1.6441,4.4439,4.4439,0,0,1-1.94.4693,2.136,2.136,0,0,1-1.6108-.6224,2.282,2.282,0,0,1-.5991-1.6574,11.1116,11.1116,0,0,1,.1231-1.4777,15.3254,15.3254,0,0,0,2.7091-.4126m-19.0434-9.7514a5.0577,5.0577,0,0,1,1.1882-2.33,2.9231,2.9231,0,0,1,1.92-.5458l.2063-.5092h-9.1589l-.1531.5092a3.7611,3.7611,0,0,1,1.7506.386,1.0362,1.0362,0,0,1,.3661.8587,6.2238,6.2238,0,0,1-.3062,1.6307L342.5,272.9528a4.9956,4.9956,0,0,1-1.1382,2.3264,2.9793,2.9793,0,0,1-1.94.5192l-.1531.5125h9.0058l.14-.5125a3.1219,3.1219,0,0,1-1.664-.3395.9536.9536,0,0,1-.4227-.8054,6.6647,6.6647,0,0,1,.3461-1.7007l1.6008-5.5812h6.8227l-1.6142,5.5812a4.8863,4.8863,0,0,1-1.1548,2.3264,3.0333,3.0333,0,0,1-1.9536.5192l-.2064.5125h9.129l.14-.5125a3.1861,3.1861,0,0,1-1.7539-.3861.8855.8855,0,0,1-.3728-.7754,6.9147,6.9147,0,0,1,.3428-1.6841l3.4812-11.9878a4.6692,4.6692,0,0,1,1.2015-2.293,3.1818,3.1818,0,0,1,2.0734-.5824l.15-.5092H355.25l-.153.5092a3.9236,3.9236,0,0,1,1.7971.386,1.0082,1.0082,0,0,1,.3728.8454,6.61,6.61,0,0,1-.3029,1.644L355.4428,266.2h-6.8493ZM329.69,278.0515a5.4649,5.4649,0,0,0,1.318-3.398,2.562,2.562,0,0,0-.6823-1.8238,2.13,2.13,0,0,0-1.6108-.7322,2.24,2.24,0,0,0-1.6208.649,2.0733,2.0733,0,0,0-.6722,1.5476,1.8975,1.8975,0,0,0,.18.8819,4.4464,4.4464,0,0,0,.9452,1.1116,1.776,1.776,0,0,1,.7122,1.1948,1.525,1.525,0,0,1-.3994.9685,11.0433,11.0433,0,0,1-2.6259,1.8237l.3195.5791a9.8112,9.8112,0,0,0,4.1368-2.8022m-4.31-20.9-4.6527.8154-.1531.5259a1.85,1.85,0,0,1,1.1748.2329.6012.6012,0,0,1,.29.5259,6.4161,6.4161,0,0,1-.3029,1.3944l-3.7308,12.7367a6.7284,6.7284,0,0,0-.3295,1.644,1.5432,1.5432,0,0,0,.5358,1.1782,2.0673,2.0673,0,0,0,1.4511.4925,3.164,3.164,0,0,0,1.85-.609,10.3523,10.3523,0,0,0,2.5859-2.9953l-.5391-.25a7.8825,7.8825,0,0,1-1.4777,1.8238.7255.7255,0,0,1-.4726.193.3454.3454,0,0,1-.2529-.1264.4141.4141,0,0,1-.12-.3029,9.0127,9.0127,0,0,1,.4027-1.7273l4.5728-15.5522Zm-10.1607,6.3534-4.6826.7588-.18.5524c.1931-.0066.3595-.0133.4959-.0133a1.034,1.034,0,0,1,.7189.2363.7026.7026,0,0,1,.2629.5392,5.7431,5.7431,0,0,1-.2762,1.4344l-1.92,6.6029a4.7655,4.7655,0,0,0-.2363,1.298,1.6923,1.6923,0,0,0,.5325,1.278,1.9988,1.9988,0,0,0,1.4311.5058q2.3463,0,4.433-3.6342l-.4693-.2763a8.3868,8.3868,0,0,1-1.491,1.8505.71.71,0,0,1-.4692.21.3553.3553,0,0,1-.2629-.1331.4015.4015,0,0,1-.1265-.2829,5.5172,5.5172,0,0,1,.2363-1.1049l2.8322-9.8212Zm-1.4577-5.761a2.049,2.049,0,0,0,.0066,2.8755,2.0208,2.0208,0,0,0,2.8589,0,2.03,2.03,0,1,0-2.8655-2.8755m-8.7829,14.1611a14.79,14.79,0,0,0,1.8305-2.2731,11.168,11.168,0,0,0,1.1615-2.17,5.3528,5.3528,0,0,0,.3395-1.87,2.3816,2.3816,0,0,0-.5825-1.6042,1.4655,1.4655,0,0,0-1.1714-.4825,1.5953,1.5953,0,0,0-1.1882.4825,1.6651,1.6651,0,0,0-.4692,1.2048,1.5,1.5,0,0,0,.1165.6057,5.6468,5.6468,0,0,0,.5923.9319,2.1926,2.1926,0,0,1,.476,1.2913,3.98,3.98,0,0,1-.7655,2.0035,18.8167,18.8167,0,0,1-2.7956,3.1351,27.9135,27.9135,0,0,0-1.3412-9.6548l-4.6,1.2314v.4959a3.545,3.545,0,0,1,.5658-.0566,1.029,1.029,0,0,1,.679.223,2.2993,2.2993,0,0,1,.619,1.0616,22.71,22.71,0,0,1,.5458,3.9738q.2446,2.9752.243,4.55c0,.386-.0134.9585-.0433,1.7139h.4992q3.44-2.9154,5.2883-4.7924m-15.3625-13.2891a8.6855,8.6855,0,0,1,3.1151.406,3.396,3.396,0,0,1,1.5376,1.2913,4.0244,4.0244,0,0,1,.4293,1.95h.4959l1.2015-4.6826h-14.93l-.1531.5092a3.7575,3.7575,0,0,1,1.7007.3794.9631.9631,0,0,1,.3727.8087,6.1353,6.1353,0,0,1-.2895,1.5875l-3.5245,12.061a4.8509,4.8509,0,0,1-1.1748,2.34,3.2188,3.2188,0,0,1-2.0567.5325l-.1664.5125h16.0247l1.947-5.1386H293.58a11.0137,11.0137,0,0,1-3.7441,3.0319,10.1713,10.1713,0,0,1-4.4463,1.0018,3.49,3.49,0,0,1-1.6741-.2763.584.584,0,0,1-.3028-.5125,5.0735,5.0735,0,0,1,.2363-1.2281l1.7938-6.2867h1.0783a8.4479,8.4479,0,0,1,1.947.14,2.4789,2.4789,0,0,1,1.1681.689,1.7594,1.7594,0,0,1,.4493,1.2447,7.4536,7.4536,0,0,1-.1265,1.1881h.4859l2.0967-7.2952h-.5092a5.132,5.132,0,0,1-1.9536,2.35,7.6716,7.6716,0,0,1-3.6675.6623h-.6357l2.0867-7.2652Zm-24.132,6.0139a1.644,1.644,0,0,1,.3461,1.1149,14.6974,14.6974,0,0,1-.5691,3.8306,19.6894,19.6894,0,0,1-1.4477,3.8273,7.4988,7.4988,0,0,1-1.4943,2.23,1.4694,1.4694,0,0,1-.9519.3328,1.2136,1.2136,0,0,1-.9118-.416A1.4825,1.4825,0,0,1,260.07,274.5a16.4707,16.4707,0,0,1,1.2148-5.7676,11.5541,11.5541,0,0,1,2.1832-4.0669,1.76,1.76,0,0,1,1.2147-.4293,1.05,1.05,0,0,1,.8021.3927m-3.4113-.3428a9.8324,9.8324,0,0,0-2.7157,2.03,10.7093,10.7093,0,0,0-1.947,2.9287,8.5257,8.5257,0,0,0-.7654,3.5977,3.8988,3.8988,0,0,0,1.0284,2.7357,3.7492,3.7492,0,0,0,2.9054,1.1182,7.6521,7.6521,0,0,0,4.1168-1.2913,9.6245,9.6245,0,0,0,3.2949-3.5311,9.0787,9.0787,0,0,0,1.2513-4.4729,4.057,4.057,0,0,0-.4925-1.99,3.4044,3.4044,0,0,0-1.4477-1.4012,4.3612,4.3612,0,0,0-2.0535-.5058,6.8882,6.8882,0,0,0-3.175.7821M239.3454,257.58l-.1531.5092a3.7888,3.7888,0,0,1,1.4944.25,4.4769,4.4769,0,0,1,1.228,1.0483l-3.9637,13.6053a4.7233,4.7233,0,0,1-.8986,1.8171,2.992,2.992,0,0,1-1.1316.852,3.2725,3.2725,0,0,1-1.1182.1365l-.1265.5125h6.1071l.1231-.5125a2.2731,2.2731,0,0,1-1.5675-.4493,1.541,1.541,0,0,1-.4893-1.1948,4.4356,4.4356,0,0,1,.18-1.1615L242.66,260.549l7.5149,15.9682h.5258l4.5728-15.5122a4.4674,4.4674,0,0,1,1.2481-2.28,3.3552,3.3552,0,0,1,1.8737-.6356l.1364-.5092h-5.9407l-.15.5092a2.3864,2.3864,0,0,1,1.4976.4825,1.4611,1.4611,0,0,1,.436,1.1083,4.959,4.959,0,0,1-.21,1.3246l-2.6359,9.0624-5.8575-12.487Zm-16.5872-.4294-4.6993.8021-.1231.5092a3.0888,3.0888,0,0,1,.9585.0965.821.821,0,0,1,.3827.2995.9079.9079,0,0,1,.1364.5159,6.0524,6.0524,0,0,1-.29,1.3412l-4.5861,15.5955h3.5211l1.3812-4.7392,1.5209-1.3546.6889,3.1351a6.7739,6.7739,0,0,0,.9419,2.6458,1.5337,1.5337,0,0,0,1.1715.5059,2.673,2.673,0,0,0,1.5775-.6789,9.0375,9.0375,0,0,0,2.333-2.9421l-.5125-.3161c-.11.183-.1964.3261-.26.426q-.6641,1.1332-1.1482,1.1349a.4479.4479,0,0,1-.3595-.2064,11.8315,11.8315,0,0,1-.7188-2.556l-.842-3.814.609-.5657q.4543-.4393,1.5043-1.2581a7.3087,7.3087,0,0,1,1.1881-.7721,7.8886,7.8886,0,0,1,1.6175-.5391l.1364-.5259h-5.6211l-.1531.5259a3.1893,3.1893,0,0,1,1.3412.2629.5761.5761,0,0,1,.2763.4826.824.824,0,0,1-.11.386,3.925,3.925,0,0,1-.6357.8021l-1.0516.9385-3.1617,2.9287,3.814-13.0661Zm-15.2094,13.785a11.2563,11.2563,0,0,1-1.6441,2.4994,1.7537,1.7537,0,0,1-1.258.7189.6761.6761,0,0,1-.5325-.3228,1.8137,1.8137,0,0,1-.24-1.0584,12.3047,12.3047,0,0,1,1.0683-4.5229,10.4373,10.4373,0,0,1,1.9969-3.4745,1.34,1.34,0,0,1,.8852-.4127.7913.7913,0,0,1,.6756.3428,2.918,2.918,0,0,1,.3461,1.6175,10.5526,10.5526,0,0,1-1.2979,4.6127m2.4428-7.0456-.4959,1.7007a3.0387,3.0387,0,0,0-.6922-1.6374,1.718,1.718,0,0,0-1.2414-.4493,4.8871,4.8871,0,0,0-2.9853,1.2713,11.114,11.114,0,0,0-3.1218,4.0536,10.7227,10.7227,0,0,0-1.1881,4.47,4.8173,4.8173,0,0,0,.5691,2.3529,1.9326,1.9326,0,0,0,1.8371,1.045,2.9361,2.9361,0,0,0,1.82-.6622,13.6437,13.6437,0,0,0,3.0818-3.8972l-.3328,1.1182a8.6236,8.6236,0,0,0-.4393,2.0035,1.3744,1.3744,0,0,0,.4127,1.0284,1.6371,1.6371,0,0,0,1.2014.4093,3.97,3.97,0,0,0,2.3962-.822,7.8933,7.8933,0,0,0,2.0934-2.6192l-.4825-.2463a11.07,11.07,0,0,1-.9951,1.268,1.46,1.46,0,0,1-.8021.4427.3262.3262,0,0,1-.24-.1232.4053.4053,0,0,1-.12-.29,1.5939,1.5939,0,0,1,.0433-.3062l.2762-1.1183,2.6791-9.1855Zm-16.301,1.4511a2.2339,2.2339,0,0,1,1.4943-.9252.7105.7105,0,0,1,.5425.2229.8325.8325,0,0,1,.2163.6058,4.7644,4.7644,0,0,1-.4692,1.9536,6.2824,6.2824,0,0,1-1.1116,1.7272,4.3161,4.3161,0,0,1-1.3146.9951,7.1322,7.1322,0,0,1-1.8837.4893,13.23,13.23,0,0,1,2.526-5.0687m.0566,5.3749a9.6561,9.6561,0,0,0,2.7224-1.2081,6.623,6.623,0,0,0,2.0135-2.0934,3.7141,3.7141,0,0,0,.5824-1.9636,1.8293,1.8293,0,0,0-.5958-1.3945,2.4963,2.4963,0,0,0-1.7539-.5524,8.7727,8.7727,0,0,0-4.5628,1.3678,10.1366,10.1366,0,0,0-3.5943,3.6343,8.9281,8.9281,0,0,0-1.318,4.5295,3.9849,3.9849,0,0,0,.8853,2.556,3.8908,3.8908,0,0,0,3.1883,1.1049,6.8965,6.8965,0,0,0,3.3315-.8153,11.0113,11.0113,0,0,0,3.0918-2.7357l-.4127-.3728a9.9926,9.9926,0,0,1-2.26,1.6441,4.4335,4.4335,0,0,1-1.94.4693,2.1234,2.1234,0,0,1-1.6075-.6224,2.27,2.27,0,0,1-.6023-1.6574,11.7007,11.7007,0,0,1,.1231-1.4777,15.2752,15.2752,0,0,0,2.7091-.4126m-15.5888-3.621a6.3385,6.3385,0,0,1,1.4643-1.3379,1.7829,1.7829,0,0,1,.9119-.25,1.1315,1.1315,0,0,1,.9186.4826,2.5179,2.5179,0,0,1,.3794,1.5475,12.0631,12.0631,0,0,1-.3428,2.7823,12.3338,12.3338,0,0,1-.9186,2.6059,9.4877,9.4877,0,0,1-1.1948,1.8771,4.5123,4.5123,0,0,1-1.045.9751,1.723,1.723,0,0,1-.8619.24,1.33,1.33,0,0,1-.7755-.2263,3.0623,3.0623,0,0,1-.7455-.9052Zm-4.5163-2.28a4.253,4.253,0,0,1,.9951.07.6276.6276,0,0,1,.3328.23.6737.6737,0,0,1,.11.3927,7.9545,7.9545,0,0,1-.3728,1.8371L171.3358,278.96a5.3077,5.3077,0,0,1-1.0983,2.323,2.2018,2.2018,0,0,1-1.471.5657l-.1365.5092h7.4283l.1265-.5092a3.3955,3.3955,0,0,1-1.4244-.4359.8589.8589,0,0,1-.3029-.6956,8.2682,8.2682,0,0,1,.3861-2.06l.7188-2.4861a5.9773,5.9773,0,0,0,1.0085.4293,3.4448,3.4448,0,0,0,.8719.0965,7.0769,7.0769,0,0,0,5.3017-2.709,10.2187,10.2187,0,0,0,2.749-7.029,4.1588,4.1588,0,0,0-.7022-2.4528,2.3133,2.3133,0,0,0-2.0035-1.0017,4.1026,4.1026,0,0,0-1.8372.4626,11.4891,11.4891,0,0,0-2.3762,1.7905l.6223-2.2531h-.8287l-4.5728.7754Zm-1.907-7.6646a2.8518,2.8518,0,0,1-.7455.6823,1.4721,1.4721,0,0,1-.7188.1731,7.0232,7.0232,0,0,1-1.6142-.3162,12.5868,12.5868,0,0,0-3.165-.5392,6.0765,6.0765,0,0,0-4.2966,1.521,4.7492,4.7492,0,0,0-1.644,3.6043,5.1689,5.1689,0,0,0,.5125,2.2631,12.7986,12.7986,0,0,0,2.5493,3.2615,14.1912,14.1912,0,0,1,2.36,2.7757,4.102,4.102,0,0,1,.5192,1.99,2.8835,2.8835,0,0,1-.9185,2.12,3.1318,3.1318,0,0,1-2.2864.9052,4.253,4.253,0,0,1-2.4595-.7388,4.7682,4.7682,0,0,1-1.6574-2.06,10.431,10.431,0,0,1-.7588-3.195h-.5258l-1.6707,7.1388h.5391a4.1813,4.1813,0,0,1,.9252-.5591,2.3138,2.3138,0,0,1,.842-.1431,15.987,15.987,0,0,1,2.3963.3494,16.0773,16.0773,0,0,0,2.9919.3528,8.2842,8.2842,0,0,0,3.4612-.6956,5.2385,5.2385,0,0,0,2.3264-1.97,5.11,5.11,0,0,0,.8021-2.7757,5.523,5.523,0,0,0-.5725-2.486,10.8288,10.8288,0,0,0-2.2464-2.7357,15.8356,15.8356,0,0,1-2.6459-2.9754,4.0375,4.0375,0,0,1-.5591-2.01,2.79,2.79,0,0,1,2.6958-2.6791,3.4353,3.4353,0,0,1,2.0767.7022,4.8907,4.8907,0,0,1,1.5409,2.0035,8.4045,8.4045,0,0,1,.5392,2.39h.4559l1.5609-6.3534Zm-26.3884,20.9a5.4654,5.4654,0,0,0,1.3179-3.398,2.562,2.562,0,0,0-.6823-1.8238,2.13,2.13,0,0,0-1.6108-.7322,2.24,2.24,0,0,0-1.6208.649,2.0729,2.0729,0,0,0-.6722,1.5476,1.8975,1.8975,0,0,0,.18.8819,4.4464,4.4464,0,0,0,.9452,1.1116,1.776,1.776,0,0,1,.7122,1.1948,1.5255,1.5255,0,0,1-.3994.9685,11.0456,11.0456,0,0,1-2.6259,1.8237l.32.5791a9.8122,9.8122,0,0,0,4.1369-2.8022m-4.31-20.9-4.6527.8154-.1531.5259a1.85,1.85,0,0,1,1.1748.2329.6014.6014,0,0,1,.29.5259,6.4161,6.4161,0,0,1-.3029,1.3944l-3.7308,12.7367a6.7284,6.7284,0,0,0-.3295,1.644,1.5432,1.5432,0,0,0,.5358,1.1782,2.0673,2.0673,0,0,0,1.4511.4925,3.164,3.164,0,0,0,1.85-.609,10.2994,10.2994,0,0,0,2.5826-2.9953l-.5358-.25a7.8825,7.8825,0,0,1-1.4777,1.8238.7255.7255,0,0,1-.4726.193.3452.3452,0,0,1-.2529-.1264.4141.4141,0,0,1-.12-.3029,9.0127,9.0127,0,0,1,.4027-1.7273l4.5728-15.5522Zm-10.1607,6.3534-4.6826.7588-.18.5524c.1931-.0066.3595-.0133.4959-.0133a1.034,1.034,0,0,1,.7189.2363.7026.7026,0,0,1,.2629.5392,5.7431,5.7431,0,0,1-.2762,1.4344l-1.92,6.6029a4.7655,4.7655,0,0,0-.2363,1.298,1.6923,1.6923,0,0,0,.5325,1.278,1.9988,1.9988,0,0,0,1.4311.5058q2.3463,0,4.433-3.6342l-.4693-.2763a8.3868,8.3868,0,0,1-1.491,1.8505.71.71,0,0,1-.4692.21.3558.3558,0,0,1-.263-.1331.4014.4014,0,0,1-.1264-.2829,5.5172,5.5172,0,0,1,.2363-1.1049l2.8322-9.8212Zm-1.4577-5.761a2.049,2.049,0,0,0,.0066,2.8755,1.9357,1.9357,0,0,0,1.4211.5924,2.03,2.03,0,1,0-1.4277-3.4679m-8.7829,14.1611a14.79,14.79,0,0,0,1.8305-2.2731,11.168,11.168,0,0,0,1.1615-2.17,5.3527,5.3527,0,0,0,.3394-1.87,2.3815,2.3815,0,0,0-.5824-1.6042,1.4655,1.4655,0,0,0-1.1714-.4825,1.5953,1.5953,0,0,0-1.1882.4825,1.6651,1.6651,0,0,0-.4692,1.2048,1.5018,1.5018,0,0,0,.1164.6057,5.6566,5.6566,0,0,0,.5924.9319,2.1926,2.1926,0,0,1,.476,1.2913,3.98,3.98,0,0,1-.7655,2.0035,18.8167,18.8167,0,0,1-2.7956,3.1351,27.9135,27.9135,0,0,0-1.3412-9.6548l-4.6,1.2314v.4959a3.545,3.545,0,0,1,.5658-.0566,1.029,1.029,0,0,1,.679.223,2.2993,2.2993,0,0,1,.619,1.0616,22.71,22.71,0,0,1,.5458,3.9738q.2447,2.9752.2429,4.55c0,.386-.0133.9585-.0432,1.7139h.4992q3.4395-2.9154,5.2883-4.7924M105.273,258.6154a8.6858,8.6858,0,0,1,3.1151.406,3.396,3.396,0,0,1,1.5376,1.2913,4.0244,4.0244,0,0,1,.4293,1.95h.4959l1.2015-4.6826h-14.93l-.1531.5092a3.7575,3.7575,0,0,1,1.7007.3794.9631.9631,0,0,1,.3727.8087,6.1353,6.1353,0,0,1-.29,1.5875l-3.5245,12.061a4.88,4.88,0,0,1-1.1748,2.34,3.2188,3.2188,0,0,1-2.0567.5325l-.1665.5125h16.0248l1.947-5.1386h-.5658a11.0137,11.0137,0,0,1-3.7441,3.0319,10.1713,10.1713,0,0,1-4.4463,1.0018,3.49,3.49,0,0,1-1.6741-.2763.584.584,0,0,1-.3028-.5125,5.0735,5.0735,0,0,1,.2363-1.2281l1.7938-6.2867h1.0783a8.4463,8.4463,0,0,1,1.9469.14,2.4787,2.4787,0,0,1,1.1682.689,1.7594,1.7594,0,0,1,.4493,1.2447,7.4536,7.4536,0,0,1-.1265,1.1881h.4859l2.0967-7.2952h-.5092a5.132,5.132,0,0,1-1.9536,2.35,7.6718,7.6718,0,0,1-3.6675.6623h-.6357l2.0834-7.2652Zm-24.132,6.0139a1.644,1.644,0,0,1,.3461,1.1149,14.6974,14.6974,0,0,1-.5691,3.8306,19.6894,19.6894,0,0,1-1.4477,3.8273,7.4988,7.4988,0,0,1-1.4943,2.23,1.4694,1.4694,0,0,1-.9519.3328,1.214,1.214,0,0,1-.9119-.416,1.4828,1.4828,0,0,1-.386-1.0484,16.4726,16.4726,0,0,1,1.2147-5.7676,11.5555,11.5555,0,0,1,2.1833-4.0669,1.76,1.76,0,0,1,1.2147-.4293,1.05,1.05,0,0,1,.8021.3927m-3.4113-.3428a9.8324,9.8324,0,0,0-2.7157,2.03,10.707,10.707,0,0,0-1.947,2.9287,8.5257,8.5257,0,0,0-.7654,3.5977,3.8988,3.8988,0,0,0,1.0284,2.7357,3.7492,3.7492,0,0,0,2.9054,1.1182,7.6524,7.6524,0,0,0,4.1168-1.2913,9.6245,9.6245,0,0,0,3.2949-3.5311,9.0787,9.0787,0,0,0,1.2513-4.4729,4.057,4.057,0,0,0-.4925-1.99,3.4047,3.4047,0,0,0-1.4478-1.4012,4.36,4.36,0,0,0-2.0534-.5058,6.8882,6.8882,0,0,0-3.175.7821M55.0021,257.58l-.1531.5092a3.7891,3.7891,0,0,1,1.4944.25,4.4769,4.4769,0,0,1,1.228,1.0483l-3.9637,13.6053a4.7233,4.7233,0,0,1-.8986,1.8171,2.9913,2.9913,0,0,1-1.1316.852,3.2725,3.2725,0,0,1-1.1182.1365l-.1265.5125H56.44l.1231-.5125a2.2731,2.2731,0,0,1-1.5675-.4493,1.541,1.541,0,0,1-.4893-1.1948,4.4356,4.4356,0,0,1,.18-1.1615l3.6309-12.4438,7.5149,15.9682h.5258L70.93,261.005a4.4681,4.4681,0,0,1,1.248-2.28,3.3558,3.3558,0,0,1,1.8738-.6356l.1364-.5092H68.248l-.15.5092a2.3864,2.3864,0,0,1,1.4976.4825,1.4611,1.4611,0,0,1,.436,1.1083,4.9555,4.9555,0,0,1-.21,1.3246l-2.6358,9.0624L61.3288,257.58Zm-16.311,7.7611a2.2285,2.2285,0,0,1,1.491-.9252.7227.7227,0,0,1,.5458.2229.8308.8308,0,0,1,.213.6058,4.7644,4.7644,0,0,1-.4692,1.9536,6.2824,6.2824,0,0,1-1.1116,1.7272,4.3441,4.3441,0,0,1-1.3113.9951,7.1976,7.1976,0,0,1-1.887.4893,13.1831,13.1831,0,0,1,2.5293-5.0687m.0533,5.3749a9.6133,9.6133,0,0,0,2.7224-1.2081,6.6687,6.6687,0,0,0,2.0168-2.0934,3.74,3.74,0,0,0,.5791-1.9636,1.8382,1.8382,0,0,0-.5924-1.3945,2.5057,2.5057,0,0,0-1.7573-.5524,8.7727,8.7727,0,0,0-4.5628,1.3678,10.1275,10.1275,0,0,0-3.591,3.6343,8.9019,8.9019,0,0,0-1.3213,4.5295,3.9849,3.9849,0,0,0,.8853,2.556,3.8985,3.8985,0,0,0,3.1917,1.1049,6.8927,6.8927,0,0,0,3.3281-.8153,11.0637,11.0637,0,0,0,3.0951-2.7357l-.416-.3728a9.92,9.92,0,0,1-2.26,1.6441,4.4335,4.4335,0,0,1-1.94.4693,2.1234,2.1234,0,0,1-1.6075-.6224,2.2705,2.2705,0,0,1-.6023-1.6574,11.199,11.199,0,0,1,.1264-1.4777,15.281,15.281,0,0,0,2.7058-.4126m-13.0428-5.3749a2.2281,2.2281,0,0,1,1.491-.9252.7229.7229,0,0,1,.5458.2229.8308.8308,0,0,1,.213.6058,4.7646,4.7646,0,0,1-.4693,1.9536,6.205,6.205,0,0,1-1.1116,1.7272,4.3441,4.3441,0,0,1-1.3113.9951,7.1237,7.1237,0,0,1-1.887.4893,13.1831,13.1831,0,0,1,2.5294-5.0687m.0532,5.3749a9.6133,9.6133,0,0,0,2.7224-1.2081,6.6687,6.6687,0,0,0,2.0168-2.0934,3.7386,3.7386,0,0,0,.5791-1.9636,1.8263,1.8263,0,0,0-.5924-1.3945,2.502,2.502,0,0,0-1.7539-.5524,8.7747,8.7747,0,0,0-4.5661,1.3678,10.1285,10.1285,0,0,0-3.5911,3.6343,8.929,8.929,0,0,0-1.3179,4.5295,3.9819,3.9819,0,0,0,.882,2.556,3.8982,3.8982,0,0,0,3.1916,1.1049,6.8832,6.8832,0,0,0,3.3281-.8153,10.9713,10.9713,0,0,0,3.0951-2.7357l-.416-.3728a9.9871,9.9871,0,0,1-2.2564,1.6441,4.4446,4.4446,0,0,1-1.94.4693,2.131,2.131,0,0,1-1.6108-.6224,2.282,2.282,0,0,1-.5991-1.6574,11.1142,11.1142,0,0,1,.1232-1.4777,15.2812,15.2812,0,0,0,2.7057-.4126M18.4463,257.151a2.9044,2.9044,0,0,1-.7455.6823,1.4722,1.4722,0,0,1-.7189.1731,7.0735,7.0735,0,0,1-1.6174-.3162,12.5423,12.5423,0,0,0-3.1617-.5392,6.071,6.071,0,0,0-4.2966,1.521,4.7493,4.7493,0,0,0-1.6441,3.6043,5.169,5.169,0,0,0,.5126,2.2631,12.7963,12.7963,0,0,0,2.5493,3.2615,14.1912,14.1912,0,0,1,2.36,2.7757,4.1031,4.1031,0,0,1,.5192,1.99,2.8833,2.8833,0,0,1-.9186,2.12,3.1316,3.1316,0,0,1-2.2864.9052,4.2453,4.2453,0,0,1-2.4594-.7388,4.7675,4.7675,0,0,1-1.6574-2.06,10.4281,10.4281,0,0,1-.7588-3.195H3.5963l-1.6707,7.1388h.5392a4.1813,4.1813,0,0,1,.9252-.5591,2.3138,2.3138,0,0,1,.842-.1431,15.9846,15.9846,0,0,1,2.3962.3494,16.0489,16.0489,0,0,0,2.992.3528,8.2842,8.2842,0,0,0,3.4612-.6956,5.257,5.257,0,0,0,2.3264-1.97,5.11,5.11,0,0,0,.802-2.7757,5.4824,5.4824,0,0,0-.5757-2.486,10.73,10.73,0,0,0-2.2432-2.7357,15.834,15.834,0,0,1-2.6458-2.9754,4.0365,4.0365,0,0,1-.5591-2.01,2.79,2.79,0,0,1,2.6924-2.6791,3.438,3.438,0,0,1,2.08.7022,4.8907,4.8907,0,0,1,1.5409,2.0035,8.4048,8.4048,0,0,1,.5391,2.39h.456l1.5609-6.3534Z"/></svg>